<?xml version="1.0" encoding="UTF-8"?>
<!DOCTYPE svg PUBLIC "-//W3C//DTD SVG 1.1//EN" "http://www.w3.org/Graphics/SVG/1.1/DTD/svg11.dtd">
<svg xmlns="http://www.w3.org/2000/svg" version="1.1" width="300px" height="300px" style="shape-rendering:geometricPrecision; text-rendering:geometricPrecision; image-rendering:optimizeQuality; fill-rule:evenodd; clip-rule:evenodd" xmlns:xlink="http://www.w3.org/1999/xlink">
<g><path style="opacity:1" fill="#fefefe" d="M -0.5,-0.5 C 99.5,-0.5 199.5,-0.5 299.5,-0.5C 299.5,99.5 299.5,199.5 299.5,299.5C 199.5,299.5 99.5,299.5 -0.5,299.5C -0.5,257.833 -0.5,216.167 -0.5,174.5C 3.80297,179.048 9.1363,181.048 15.5,180.5C 21.3071,180.298 26.9738,179.298 32.5,177.5C 41.8157,181.08 51.3157,181.413 61,178.5C 64.4346,179.491 67.9346,180.157 71.5,180.5C 97.7744,180.568 124.108,180.401 150.5,180C 156.489,178.337 160.989,174.837 164,169.5C 164.671,170.252 165.504,170.586 166.5,170.5C 188.663,171.663 210.996,171.83 233.5,171C 234.066,170.005 234.733,169.172 235.5,168.5C 236.657,159.676 236.824,150.676 236,141.5C 235.617,140.944 235.117,140.611 234.5,140.5C 233.373,139.878 232.373,139.045 231.5,138C 210.094,137.179 188.76,137.346 167.5,138.5C 165.261,133.766 161.594,130.599 156.5,129C 149.321,128.179 142.321,128.345 135.5,129.5C 133.94,129.519 132.44,129.852 131,130.5C 122.174,127.855 113.34,127.855 104.5,130.5C 87.0226,129.776 69.5226,129.443 52,129.5C 39.8328,129.986 27.6661,130.486 15.5,131C 12.8232,131.249 10.4899,132.249 8.5,134C 4.59151,136.406 1.59151,139.572 -0.5,143.5C -0.5,95.5 -0.5,47.5 -0.5,-0.5 Z"/></g>
<g><path style="opacity:1" fill="#e3e2e7" d="M 135.5,129.5 C 141.842,129.334 148.175,129.5 154.5,130C 155.833,130.667 157.167,131.333 158.5,132C 152.167,132.333 145.833,132.667 139.5,133C 137.391,134.141 135.558,135.641 134,137.5C 130.913,133.208 126.746,131.542 121.5,132.5C 119.167,132.667 116.833,132.833 114.5,133C 112.301,134.697 109.968,136.197 107.5,137.5C 105.258,133.712 101.925,132.046 97.5,132.5C 94.1392,132.112 91.3059,133.112 89,135.5C 86.5206,133.083 83.5206,132.083 80,132.5C 77.0651,132.334 74.3984,133.001 72,134.5C 68.9788,133.148 65.8122,132.481 62.5,132.5C 57.6625,133.768 52.8291,133.768 48,132.5C 44.7997,132.147 42.133,133.147 40,135.5C 36.4434,133.05 32.4434,132.05 28,132.5C 23.437,132.074 19.2704,133.074 15.5,135.5C 15.44,134.957 15.1067,134.624 14.5,134.5C 8.68331,136.817 4.51665,140.817 2,146.5C -5.29925,174.373 4.53408,183.706 31.5,174.5C 41.0763,177.955 50.743,178.289 60.5,175.5C 62.7143,175.611 64.7143,176.278 66.5,177.5C 94.6245,178.495 122.958,178.662 151.5,178C 154.424,177.317 156.758,175.817 158.5,173.5C 158.376,172.893 158.043,172.56 157.5,172.5C 159.355,170.967 161.188,169.3 163,167.5C 163.171,159.323 163.671,151.323 164.5,143.5C 164.5,144.833 164.5,146.167 164.5,147.5C 164.334,154.508 164.5,161.508 165,168.5C 165.717,169.044 166.217,169.711 166.5,170.5C 165.504,170.586 164.671,170.252 164,169.5C 160.989,174.837 156.489,178.337 150.5,180C 124.108,180.401 97.7744,180.568 71.5,180.5C 67.9346,180.157 64.4346,179.491 61,178.5C 51.3157,181.413 41.8157,181.08 32.5,177.5C 26.9738,179.298 21.3071,180.298 15.5,180.5C 9.1363,181.048 3.80297,179.048 -0.5,174.5C -0.5,164.167 -0.5,153.833 -0.5,143.5C 1.59151,139.572 4.59151,136.406 8.5,134C 10.4899,132.249 12.8232,131.249 15.5,131C 27.6661,130.486 39.8328,129.986 52,129.5C 69.5226,129.443 87.0226,129.776 104.5,130.5C 113.34,127.855 122.174,127.855 131,130.5C 132.44,129.852 133.94,129.519 135.5,129.5 Z"/></g>
<g><path style="opacity:1" fill="#f7f7f8" d="M 135.5,129.5 C 142.321,128.345 149.321,128.179 156.5,129C 161.594,130.599 165.261,133.766 167.5,138.5C 165.75,139.659 164.75,141.326 164.5,143.5C 163.671,151.323 163.171,159.323 163,167.5C 161.188,169.3 159.355,170.967 157.5,172.5C 150.588,173.462 143.588,173.795 136.5,173.5C 127.497,173.397 118.497,173.397 109.5,173.5C 106.546,173.709 103.879,173.042 101.5,171.5C 95.68,174.143 89.8467,174.143 84,171.5C 79.4089,173.509 74.5755,174.009 69.5,173C 67.6969,172.363 66.3636,171.197 65.5,169.5C 64.4777,169.855 63.811,170.522 63.5,171.5C 60.0394,173.027 56.3727,174.027 52.5,174.5C 46.3391,175.002 40.8391,173.336 36,169.5C 34.6974,169.978 33.5307,170.645 32.5,171.5C 31.5266,171.987 30.5266,172.487 29.5,173C 23.8431,173.499 18.1764,173.666 12.5,173.5C 10.0968,173.607 8.26351,172.607 7,170.5C 7.41633,161.537 7.24966,152.537 6.5,143.5C 9.23016,140.618 12.2302,137.951 15.5,135.5C 19.2704,133.074 23.437,132.074 28,132.5C 32.4434,132.05 36.4434,133.05 40,135.5C 42.133,133.147 44.7997,132.147 48,132.5C 52.8291,133.768 57.6625,133.768 62.5,132.5C 65.8122,132.481 68.9788,133.148 72,134.5C 74.3984,133.001 77.0651,132.334 80,132.5C 83.5206,132.083 86.5206,133.083 89,135.5C 91.3059,133.112 94.1392,132.112 97.5,132.5C 101.925,132.046 105.258,133.712 107.5,137.5C 109.968,136.197 112.301,134.697 114.5,133C 116.833,132.833 119.167,132.667 121.5,132.5C 126.746,131.542 130.913,133.208 134,137.5C 135.558,135.641 137.391,134.141 139.5,133C 145.833,132.667 152.167,132.333 158.5,132C 157.167,131.333 155.833,130.667 154.5,130C 148.175,129.5 141.842,129.334 135.5,129.5 Z"/></g>
<g><path style="opacity:1" fill="#a6a6b6" d="M 35.5,144.5 C 35.5,142.5 35.5,140.5 35.5,138.5C 29.773,138.26 24.1064,138.593 18.5,139.5C 18.6107,138.883 18.944,138.383 19.5,138C 25.1569,137.501 30.8236,137.334 36.5,137.5C 36.8016,140.059 36.4682,142.393 35.5,144.5 Z"/></g>
<g><path style="opacity:1" fill="#a7a7b7" d="M 158.5,145.5 C 158.5,145.167 158.5,144.833 158.5,144.5C 158.5,142.5 158.5,140.5 158.5,138.5C 152.833,138.5 147.167,138.5 141.5,138.5C 141.5,140.5 141.5,142.5 141.5,144.5C 140.833,142.833 140.167,141.167 139.5,139.5C 139.611,138.883 139.944,138.383 140.5,138C 146.833,137.333 153.167,137.333 159.5,138C 160.097,139.062 160.43,140.228 160.5,141.5C 160.66,143.355 159.993,144.688 158.5,145.5 Z"/></g>
<g><path style="opacity:1" fill="#ececef" d="M 35.5,144.5 C 32.1667,144.5 28.8333,144.5 25.5,144.5C 25.5,145.5 25.5,146.5 25.5,147.5C 27.8333,147.5 30.1667,147.5 32.5,147.5C 33.8775,148.234 35.3775,148.901 37,149.5C 37.6667,153.5 37.6667,157.5 37,161.5C 35.6976,162.085 34.531,162.751 33.5,163.5C 27.8791,164.354 22.2124,164.687 16.5,164.5C 16.5,162.167 16.5,159.833 16.5,157.5C 20.5,157.5 24.5,157.5 28.5,157.5C 28.5,156.5 28.5,155.5 28.5,154.5C 16.4783,155.308 13.145,150.308 18.5,139.5C 24.1064,138.593 29.773,138.26 35.5,138.5C 35.5,140.5 35.5,142.5 35.5,144.5 Z"/></g>
<g><path style="opacity:1" fill="#f6f6f8" d="M 44.5,138.5 C 47.1667,138.5 49.8333,138.5 52.5,138.5C 52.3338,144.509 52.5005,150.509 53,156.5C 53.3826,157.056 53.8826,157.389 54.5,157.5C 56.099,157.768 57.4324,157.434 58.5,156.5C 59.4896,150.69 59.8229,144.69 59.5,138.5C 61.8333,138.5 64.1667,138.5 66.5,138.5C 66.7701,146.555 66.4368,154.555 65.5,162.5C 60.3166,164.35 54.9833,164.85 49.5,164C 47.714,163.215 46.214,162.049 45,160.5C 44.5003,153.174 44.3337,145.841 44.5,138.5 Z"/></g>
<g><path style="opacity:1" fill="#acabba" d="M 76.5,163.5 C 75.5073,155.35 75.1739,147.017 75.5,138.5C 86.1459,137.72 86.4793,137.72 76.5,138.5C 76.5,146.833 76.5,155.167 76.5,163.5 Z"/></g>
<g><path style="opacity:1" fill="#b2b2bf" d="M 100.5,165.5 C 98.3926,164.532 96.0593,164.198 93.5,164.5C 93.8182,159.968 93.4849,155.634 92.5,151.5C 92.56,150.957 92.8933,150.624 93.5,150.5C 94.4922,154.783 94.8256,159.116 94.5,163.5C 96.8333,163.5 99.1667,163.5 101.5,163.5C 101.5,155.167 101.5,146.833 101.5,138.5C 98.3915,138.264 95.3915,138.597 92.5,139.5C 92.1667,139.5 91.8333,139.5 91.5,139.5C 91.6107,138.883 91.944,138.383 92.5,138C 95.8168,137.502 99.1501,137.335 102.5,137.5C 102.666,146.506 102.5,155.506 102,164.5C 101.617,165.056 101.117,165.389 100.5,165.5 Z"/></g>
<g><path style="opacity:1" fill="#f3f3f5" d="M 125.5,163.5 C 124.539,161.735 124.205,159.735 124.5,157.5C 122.5,157.5 120.5,157.5 118.5,157.5C 117.539,159.265 117.205,161.265 117.5,163.5C 115.167,163.5 112.833,163.5 110.5,163.5C 109.521,155.03 110.854,147.03 114.5,139.5C 119.001,138.194 123.501,138.194 128,139.5C 131.992,147.003 133.492,155.003 132.5,163.5C 130.167,163.5 127.833,163.5 125.5,163.5 Z"/></g>
<g><path style="opacity:1" fill="#fbfbfb" d="M 158.5,144.5 C 157.167,144.5 155.833,144.5 154.5,144.5C 154.5,145.833 154.5,147.167 154.5,148.5C 154.5,151.5 154.5,154.5 154.5,157.5C 155.833,157.5 157.167,157.5 158.5,157.5C 158.5,159.5 158.5,161.5 158.5,163.5C 152.833,163.5 147.167,163.5 141.5,163.5C 141.5,161.5 141.5,159.5 141.5,157.5C 143.167,157.5 144.833,157.5 146.5,157.5C 146.818,152.968 146.485,148.634 145.5,144.5C 144.167,144.5 142.833,144.5 141.5,144.5C 141.5,142.5 141.5,140.5 141.5,138.5C 147.167,138.5 152.833,138.5 158.5,138.5C 158.5,140.5 158.5,142.5 158.5,144.5 Z"/></g>
<g><path style="opacity:1" fill="#8c8ca1" d="M 44.5,138.5 C 47.2869,137.523 50.2869,137.19 53.5,137.5C 53.2322,139.099 53.5655,140.432 54.5,141.5C 54.5,146.833 54.5,152.167 54.5,157.5C 53.8826,157.389 53.3826,157.056 53,156.5C 52.5005,150.509 52.3338,144.509 52.5,138.5C 49.8333,138.5 47.1667,138.5 44.5,138.5 Z"/></g>
<g><path style="opacity:1" fill="#040c33" d="M 57.5,139.5 C 58.4889,144.975 58.8222,150.642 58.5,156.5C 57.4324,157.434 56.099,157.768 54.5,157.5C 54.5,152.167 54.5,146.833 54.5,141.5C 55.5,140.833 56.5,140.167 57.5,139.5 Z"/></g>
<g><path style="opacity:1" fill="#afafbd" d="M 65.5,162.5 C 66.4368,154.555 66.7701,146.555 66.5,138.5C 64.1667,138.5 61.8333,138.5 59.5,138.5C 59.8229,144.69 59.4896,150.69 58.5,156.5C 58.8222,150.642 58.4889,144.975 57.5,139.5C 57.6107,138.883 57.944,138.383 58.5,138C 61.7603,137.216 64.9269,137.383 68,138.5C 68.6667,144.833 68.6667,151.167 68,157.5C 67.9005,159.653 67.0672,161.319 65.5,162.5 Z"/></g>
<g><path style="opacity:1" fill="#0e163a" d="M 75.5,138.5 C 75.1739,147.017 75.5073,155.35 76.5,163.5C 78.5,164.167 80.5,164.833 82.5,165.5C 78.9912,168.115 74.9912,169.115 70.5,168.5C 70.1685,159.475 70.5018,150.475 71.5,141.5C 72.8518,140.476 74.1851,139.476 75.5,138.5 Z"/></g>
<g><path style="opacity:1" fill="#071136" d="M 139.5,139.5 C 140.167,141.167 140.833,142.833 141.5,144.5C 142.833,144.5 144.167,144.5 145.5,144.5C 145.5,148.5 145.5,152.5 145.5,156.5C 144.167,156.5 142.833,156.5 141.5,156.5C 141.5,153.833 141.5,151.167 141.5,148.5C 139.833,148.5 138.167,148.5 136.5,148.5C 134.791,144.654 135.791,141.654 139.5,139.5 Z"/></g>
<g><path style="opacity:1" fill="#dda269" d="M 234.5,140.5 C 234.833,141.833 235.167,143.167 235.5,144.5C 219.333,143.174 203.167,143.174 187,144.5C 181.713,143.787 176.379,143.12 171,142.5C 169.124,144.123 167.79,143.79 167,141.5C 166.583,142.756 165.75,143.423 164.5,143.5C 164.75,141.326 165.75,139.659 167.5,138.5C 188.76,137.346 210.094,137.179 231.5,138C 232.373,139.045 233.373,139.878 234.5,140.5 Z"/></g>
<g><path style="opacity:1" fill="#0f163b" d="M 44.5,138.5 C 44.3337,145.841 44.5003,153.174 45,160.5C 46.214,162.049 47.714,163.215 49.5,164C 54.9833,164.85 60.3166,164.35 65.5,162.5C 59.6916,168.192 52.6916,170.026 44.5,168C 43.0692,167.535 41.9025,166.701 41,165.5C 39.3989,157.605 39.0655,149.605 40,141.5C 41.6147,140.614 43.1147,139.614 44.5,138.5 Z"/></g>
<g><path style="opacity:1" fill="#9e9faf" d="M 62.5,141.5 C 63.6525,147.319 63.8192,153.319 63,159.5C 59.4054,161.456 55.572,161.956 51.5,161C 55.2335,160.934 58.7335,160.101 62,158.5C 62.4994,152.843 62.6661,147.176 62.5,141.5 Z"/></g>
<g><path style="opacity:1" fill="#141a3e" d="M 113.5,139.5 C 113.833,139.5 114.167,139.5 114.5,139.5C 110.854,147.03 109.521,155.03 110.5,163.5C 112.5,164.167 114.5,164.833 116.5,165.5C 113.419,168.193 109.753,169.193 105.5,168.5C 104.519,159.579 105.853,151.079 109.5,143C 110.645,141.598 111.978,140.431 113.5,139.5 Z"/></g>
<g><path style="opacity:1" fill="#adacbb" d="M 144.5,141.5 C 152.148,140.307 154.148,140.307 150.5,141.5C 150.5,147.5 150.5,153.5 150.5,159.5C 150.167,160.833 149.833,160.833 149.5,159.5C 149.5,153.5 149.5,147.5 149.5,141.5C 147.833,141.5 146.167,141.5 144.5,141.5 Z"/></g>
<g><path style="opacity:1" fill="#d29765" d="M 235.5,144.5 C 235.5,150.167 235.5,155.833 235.5,161.5C 233.114,161.259 231.114,161.925 229.5,163.5C 227.673,158.204 225.839,152.871 224,147.5C 222.333,146.167 220.667,146.167 219,147.5C 217.169,152.818 215.336,158.151 213.5,163.5C 214.833,163.5 216.167,163.5 217.5,163.5C 213.833,164.833 210.167,164.833 206.5,163.5C 205.523,160.713 205.19,157.713 205.5,154.5C 202.789,154.185 200.456,154.852 198.5,156.5C 198.5,155.5 198.5,154.5 198.5,153.5C 195.833,153.5 193.167,153.5 190.5,153.5C 190.5,152.167 190.5,150.833 190.5,149.5C 193.167,149.5 195.833,149.5 198.5,149.5C 199.404,148.791 199.737,147.791 199.5,146.5C 195.167,146.5 190.833,146.5 186.5,146.5C 186.5,149.833 186.5,153.167 186.5,156.5C 185.833,156.5 185.167,156.5 184.5,156.5C 181.192,155.678 180.526,153.845 182.5,151C 182.561,149.289 181.894,147.956 180.5,147C 177.183,146.502 173.85,146.335 170.5,146.5C 170.5,152.167 170.5,157.833 170.5,163.5C 169.834,158.651 169.167,153.651 168.5,148.5C 167.139,148.212 165.806,147.879 164.5,147.5C 164.5,146.167 164.5,144.833 164.5,143.5C 165.75,143.423 166.583,142.756 167,141.5C 167.79,143.79 169.124,144.123 171,142.5C 176.379,143.12 181.713,143.787 187,144.5C 203.167,143.174 219.333,143.174 235.5,144.5 Z"/></g>
<g><path style="opacity:1" fill="#151b3f" d="M 18.5,139.5 C 13.145,150.308 16.4783,155.308 28.5,154.5C 28.5,155.5 28.5,156.5 28.5,157.5C 24.5,157.5 20.5,157.5 16.5,157.5C 16.5,159.833 16.5,162.167 16.5,164.5C 22.2124,164.687 27.8791,164.354 33.5,163.5C 32.2842,165.451 30.6175,166.951 28.5,168C 22.8431,168.499 17.1764,168.666 11.5,168.5C 10.7938,164.115 12.1271,160.615 15.5,158C 14.0692,157.535 12.9025,156.701 12,155.5C 9.60789,148.039 11.7746,142.706 18.5,139.5 Z"/></g>
<g><path style="opacity:1" fill="#212448" d="M 91.5,139.5 C 91.8333,139.5 92.1667,139.5 92.5,139.5C 91.8855,141.723 90.5522,143.389 88.5,144.5C 87.9839,142.267 88.9839,140.6 91.5,139.5 Z"/></g>
<g><path style="opacity:1" fill="#191d42" d="M 35.5,144.5 C 34.3065,145.272 33.3065,146.272 32.5,147.5C 30.1667,147.5 27.8333,147.5 25.5,147.5C 25.5,146.5 25.5,145.5 25.5,144.5C 28.8333,144.5 32.1667,144.5 35.5,144.5 Z"/></g>
<g><path style="opacity:1" fill="#1e2146" d="M 158.5,144.5 C 158.5,144.833 158.5,145.167 158.5,145.5C 157.167,146.167 156.167,147.167 155.5,148.5C 155.167,148.5 154.833,148.5 154.5,148.5C 154.5,147.167 154.5,145.833 154.5,144.5C 155.833,144.5 157.167,144.5 158.5,144.5 Z"/></g>
<g><path style="opacity:1" fill="#1b1f43" d="M 120.5,144.5 C 121.5,144.5 122.5,144.5 123.5,144.5C 123.833,146.5 124.167,148.5 124.5,150.5C 122.833,150.5 121.167,150.5 119.5,150.5C 119.517,148.435 119.85,146.435 120.5,144.5 Z"/></g>
<g><path style="opacity:1" fill="#b6b6c3" d="M 131.5,165.5 C 129.5,164.833 127.5,164.167 125.5,163.5C 127.833,163.5 130.167,163.5 132.5,163.5C 133.492,155.003 131.992,147.003 128,139.5C 123.501,138.194 119.001,138.194 114.5,139.5C 114.167,139.5 113.833,139.5 113.5,139.5C 113.611,138.883 113.944,138.383 114.5,138C 119.419,137.198 124.252,137.365 129,138.5C 133.223,146.684 134.556,155.351 133,164.5C 132.617,165.056 132.117,165.389 131.5,165.5 Z"/></g>
<g><path style="opacity:1" fill="#f9f2ec" d="M 184.5,156.5 C 184.822,158.722 184.155,160.556 182.5,162C 178.637,163.354 174.637,163.854 170.5,163.5C 170.5,157.833 170.5,152.167 170.5,146.5C 173.85,146.335 177.183,146.502 180.5,147C 181.894,147.956 182.561,149.289 182.5,151C 180.526,153.845 181.192,155.678 184.5,156.5 Z"/></g>
<g><path style="opacity:1" fill="#f9f2ed" d="M 198.5,149.5 C 195.833,149.5 193.167,149.5 190.5,149.5C 190.5,150.833 190.5,152.167 190.5,153.5C 193.167,153.5 195.833,153.5 198.5,153.5C 198.5,154.5 198.5,155.5 198.5,156.5C 195.833,156.5 193.167,156.5 190.5,156.5C 190.5,157.833 190.5,159.167 190.5,160.5C 193.5,160.5 196.5,160.5 199.5,160.5C 199.5,161.5 199.5,162.5 199.5,163.5C 195.5,163.5 191.5,163.5 187.5,163.5C 187.5,158.167 187.5,152.833 187.5,147.5C 191.649,146.92 195.316,147.586 198.5,149.5 Z"/></g>
<g><path style="opacity:1" fill="#f7ede5" d="M 229.5,163.5 C 228.167,163.5 226.833,163.5 225.5,163.5C 225.67,162.178 225.337,161.011 224.5,160C 222.19,159.503 219.857,159.337 217.5,159.5C 217.5,160.833 217.5,162.167 217.5,163.5C 216.167,163.5 214.833,163.5 213.5,163.5C 215.336,158.151 217.169,152.818 219,147.5C 220.667,146.167 222.333,146.167 224,147.5C 225.839,152.871 227.673,158.204 229.5,163.5 Z"/></g>
<g><path style="opacity:1" fill="#77788f" d="M 145.5,144.5 C 146.485,148.634 146.818,152.968 146.5,157.5C 144.833,157.5 143.167,157.5 141.5,157.5C 141.5,159.5 141.5,161.5 141.5,163.5C 140.833,161.833 140.167,160.167 139.5,158.5C 140.403,155.609 140.736,152.609 140.5,149.5C 138.901,149.768 137.568,149.434 136.5,148.5C 138.167,148.5 139.833,148.5 141.5,148.5C 141.5,151.167 141.5,153.833 141.5,156.5C 142.833,156.5 144.167,156.5 145.5,156.5C 145.5,152.5 145.5,148.5 145.5,144.5 Z"/></g>
<g><path style="opacity:1" fill="#d29a6c" d="M 173.5,149.5 C 175.5,149.5 177.5,149.5 179.5,149.5C 179.241,153.068 177.241,154.401 173.5,153.5C 173.5,152.167 173.5,150.833 173.5,149.5 Z"/></g>
<g><path style="opacity:1" fill="#e7ccb4" d="M 198.5,149.5 C 195.316,147.586 191.649,146.92 187.5,147.5C 187.5,152.833 187.5,158.167 187.5,163.5C 186.532,161.393 186.198,159.059 186.5,156.5C 186.5,153.167 186.5,149.833 186.5,146.5C 190.833,146.5 195.167,146.5 199.5,146.5C 199.737,147.791 199.404,148.791 198.5,149.5 Z"/></g>
<g><path style="opacity:1" fill="#e4c7ae" d="M 234.5,140.5 C 235.117,140.611 235.617,140.944 236,141.5C 236.824,150.676 236.657,159.676 235.5,168.5C 235.5,166.167 235.5,163.833 235.5,161.5C 235.5,155.833 235.5,150.167 235.5,144.5C 235.167,143.167 234.833,141.833 234.5,140.5 Z"/></g>
<g><path style="opacity:1" fill="#12193d" d="M 92.5,151.5 C 93.4849,155.634 93.8182,159.968 93.5,164.5C 96.0593,164.198 98.3926,164.532 100.5,165.5C 97.0725,168.231 93.0725,169.231 88.5,168.5C 88.6653,164.818 88.4986,161.152 88,157.5C 86.8873,158.305 85.7206,158.972 84.5,159.5C 84.1984,156.941 84.5318,154.607 85.5,152.5C 88.2143,155.358 90.5476,155.024 92.5,151.5 Z"/></g>
<g><path style="opacity:1" fill="#87889d" d="M 114.5,154.5 C 119.305,153.513 124.305,153.179 129.5,153.5C 129.663,155.857 129.497,158.19 129,160.5C 128.505,158.527 128.338,156.527 128.5,154.5C 123.833,154.5 119.167,154.5 114.5,154.5 Z"/></g>
<g><path style="opacity:1" fill="#d3a178" d="M 220.5,151.5 C 222.741,152.3 223.741,153.966 223.5,156.5C 222.127,156.657 220.793,156.49 219.5,156C 220.38,154.644 220.714,153.144 220.5,151.5 Z"/></g>
<g><path style="opacity:1" fill="#0a1338" d="M 118.5,157.5 C 120.5,157.5 122.5,157.5 124.5,157.5C 124.205,159.735 124.539,161.735 125.5,163.5C 127.5,164.167 129.5,164.833 131.5,165.5C 128.073,168.231 124.073,169.231 119.5,168.5C 119.5,166.833 119.5,165.167 119.5,163.5C 118.85,161.565 118.517,159.565 118.5,157.5 Z"/></g>
<g><path style="opacity:1" fill="#071136" d="M 139.5,158.5 C 140.167,160.167 140.833,161.833 141.5,163.5C 146.833,164.167 152.167,164.833 157.5,165.5C 156.373,166.122 155.373,166.955 154.5,168C 148.5,168.667 142.5,168.667 136.5,168C 134.603,163.828 135.603,160.662 139.5,158.5 Z"/></g>
<g><path style="opacity:1" fill="#f7eee7" d="M 206.5,163.5 C 206.5,158.833 206.5,154.167 206.5,149.5C 204.833,149.5 203.167,149.5 201.5,149.5C 201.5,148.5 201.5,147.5 201.5,146.5C 205.833,146.5 210.167,146.5 214.5,146.5C 214.5,147.5 214.5,148.5 214.5,149.5C 212.833,149.5 211.167,149.5 209.5,149.5C 209.5,154.167 209.5,158.833 209.5,163.5C 208.5,163.5 207.5,163.5 206.5,163.5 Z"/></g>
<g><path style="opacity:1" fill="#b97c4f" d="M 164.5,147.5 C 165.806,147.879 167.139,148.212 168.5,148.5C 169.167,153.651 169.834,158.651 170.5,163.5C 174.637,163.854 178.637,163.354 182.5,162C 184.155,160.556 184.822,158.722 184.5,156.5C 185.167,156.5 185.833,156.5 186.5,156.5C 186.198,159.059 186.532,161.393 187.5,163.5C 191.5,163.5 195.5,163.5 199.5,163.5C 199.5,162.5 199.5,161.5 199.5,160.5C 196.5,160.5 193.5,160.5 190.5,160.5C 190.5,159.167 190.5,157.833 190.5,156.5C 193.167,156.5 195.833,156.5 198.5,156.5C 200.456,154.852 202.789,154.185 205.5,154.5C 205.19,157.713 205.523,160.713 206.5,163.5C 210.167,164.833 213.833,164.833 217.5,163.5C 217.5,162.167 217.5,160.833 217.5,159.5C 219.857,159.337 222.19,159.503 224.5,160C 225.337,161.011 225.67,162.178 225.5,163.5C 226.833,163.5 228.167,163.5 229.5,163.5C 231.114,161.925 233.114,161.259 235.5,161.5C 235.5,163.833 235.5,166.167 235.5,168.5C 234.733,169.172 234.066,170.005 233.5,171C 210.996,171.83 188.663,171.663 166.5,170.5C 166.217,169.711 165.717,169.044 165,168.5C 164.5,161.508 164.334,154.508 164.5,147.5 Z"/></g>
<g><path style="opacity:1" fill="#c68f60" d="M 173.5,156.5 C 175.833,156.5 178.167,156.5 180.5,156.5C 180.67,157.822 180.337,158.989 179.5,160C 177.527,160.495 175.527,160.662 173.5,160.5C 173.5,159.167 173.5,157.833 173.5,156.5 Z"/></g>
<g><path style="opacity:1" fill="#a0a0b1" d="M 85.5,152.5 C 84.5318,154.607 84.1984,156.941 84.5,159.5C 84.9465,162.01 84.2798,164.01 82.5,165.5C 80.5,164.833 78.5,164.167 76.5,163.5C 78.8333,163.5 81.1667,163.5 83.5,163.5C 83.3343,159.154 83.501,154.821 84,150.5C 84.7172,151.044 85.2172,151.711 85.5,152.5 Z"/></g>
<g><path style="opacity:1" fill="#a9a9b8" d="M 118.5,157.5 C 118.517,159.565 118.85,161.565 119.5,163.5C 118.5,164.167 117.5,164.833 116.5,165.5C 114.5,164.833 112.5,164.167 110.5,163.5C 112.833,163.5 115.167,163.5 117.5,163.5C 117.205,161.265 117.539,159.265 118.5,157.5 Z"/></g>
<g><path style="opacity:1" fill="#adadbc" d="M 154.5,148.5 C 154.833,148.5 155.167,148.5 155.5,148.5C 155.5,151.167 155.5,153.833 155.5,156.5C 160.213,156.468 161.713,158.801 160,163.5C 159.292,164.381 158.458,165.047 157.5,165.5C 152.167,164.833 146.833,164.167 141.5,163.5C 147.167,163.5 152.833,163.5 158.5,163.5C 158.5,161.5 158.5,159.5 158.5,157.5C 157.167,157.5 155.833,157.5 154.5,157.5C 154.5,154.5 154.5,151.5 154.5,148.5 Z"/></g>
<g><path style="opacity:1" fill="#777890" d="M 6.5,143.5 C 7.24966,152.537 7.41633,161.537 7,170.5C 8.26351,172.607 10.0968,173.607 12.5,173.5C 15.977,174.323 19.6437,174.823 23.5,175C 17.8333,175.667 12.1667,175.667 6.5,175C 5.33333,173.833 4.16667,172.667 3,171.5C 2.33333,163.5 2.33333,155.5 3,147.5C 4.04373,146.377 4.71039,145.044 5,143.5C 5.68999,142.262 6.18999,142.262 6.5,143.5 Z"/></g>
<g><path style="opacity:1" fill="#72738c" d="M 52.5,174.5 C 49.0242,175.643 45.3575,175.81 41.5,175C 38.9556,173.908 36.2889,173.241 33.5,173C 32.944,172.617 32.6107,172.117 32.5,171.5C 33.5307,170.645 34.6974,169.978 36,169.5C 40.8391,173.336 46.3391,175.002 52.5,174.5 Z"/></g>
<g><path style="opacity:1" fill="#a9a9b8" d="M 15.5,135.5 C 12.2302,137.951 9.23016,140.618 6.5,143.5C 6.18999,142.262 5.68999,142.262 5,143.5C 4.71039,145.044 4.04373,146.377 3,147.5C 2.33333,155.5 2.33333,163.5 3,171.5C 4.16667,172.667 5.33333,173.833 6.5,175C 12.1667,175.667 17.8333,175.667 23.5,175C 19.6437,174.823 15.977,174.323 12.5,173.5C 18.1764,173.666 23.8431,173.499 29.5,173C 30.5266,172.487 31.5266,171.987 32.5,171.5C 32.6107,172.117 32.944,172.617 33.5,173C 36.2889,173.241 38.9556,173.908 41.5,175C 45.3575,175.81 49.0242,175.643 52.5,174.5C 56.3727,174.027 60.0394,173.027 63.5,171.5C 64.4525,173.61 66.1192,174.777 68.5,175C 74.0158,175.173 79.3491,175.673 84.5,176.5C 78.5,176.833 72.5,177.167 66.5,177.5C 64.7143,176.278 62.7143,175.611 60.5,175.5C 50.743,178.289 41.0763,177.955 31.5,174.5C 4.53408,183.706 -5.29925,174.373 2,146.5C 4.51665,140.817 8.68331,136.817 14.5,134.5C 15.1067,134.624 15.44,134.957 15.5,135.5 Z"/></g>
<g><path style="opacity:1" fill="#9595a8" d="M 136.5,173.5 C 141.985,174.327 147.652,174.827 153.5,175C 152.833,175.333 152.167,175.667 151.5,176C 129.169,176.5 106.836,176.667 84.5,176.5C 79.3491,175.673 74.0158,175.173 68.5,175C 66.1192,174.777 64.4525,173.61 63.5,171.5C 63.811,170.522 64.4777,169.855 65.5,169.5C 66.3636,171.197 67.6969,172.363 69.5,173C 74.5755,174.009 79.4089,173.509 84,171.5C 89.8467,174.143 95.68,174.143 101.5,171.5C 103.879,173.042 106.546,173.709 109.5,173.5C 118.497,173.397 127.497,173.397 136.5,173.5 Z"/></g>
<g><path style="opacity:1" fill="#c6c6d0" d="M 157.5,172.5 C 158.043,172.56 158.376,172.893 158.5,173.5C 156.758,175.817 154.424,177.317 151.5,178C 122.958,178.662 94.6245,178.495 66.5,177.5C 72.5,177.167 78.5,176.833 84.5,176.5C 106.836,176.667 129.169,176.5 151.5,176C 152.167,175.667 152.833,175.333 153.5,175C 147.652,174.827 141.985,174.327 136.5,173.5C 143.588,173.795 150.588,173.462 157.5,172.5 Z"/></g>
</svg>
